<svg width="33" height="32" viewBox="0 0 33 32" fill="none" xmlns="http://www.w3.org/2000/svg">
<g id="Google + (Google Plus)">
<g id="Google + (Google Plus)_2">
<rect id="Rectangle" width="33" height="32" rx="16" fill="#CC841F"/>
<g id="Group">
<path id="Vector" d="M24.373 12.9144C25.0752 12.9144 25.777 12.9144 26.4824 12.9144C26.4863 13.5987 26.493 14.2865 26.4969 14.9705C27.2022 14.9773 27.9115 14.9808 28.6172 14.9842C28.6172 15.6685 28.6172 16.3491 28.6172 17.0334C27.9118 17.0368 27.2026 17.0403 26.4969 17.0437C26.4898 17.7314 26.4863 18.4154 26.4824 19.1032C25.777 19.0998 25.071 19.1032 24.3692 19.1032C24.3624 18.4154 24.3624 17.7314 24.355 17.0471C23.6496 17.04 22.9404 17.0368 22.2347 17.0331C22.2347 16.3488 22.2347 15.6682 22.2347 14.9839C22.9404 14.9805 23.6461 14.977 24.355 14.9702C24.3586 14.2865 24.3656 13.5987 24.373 12.9144Z" fill="white"/>
<path id="Vector_2" d="M5.24675 16.0092C5.10131 12.2958 8.45549 8.86428 12.2887 8.81976C14.2424 8.65817 16.1431 9.39386 17.6216 10.5938C17.0151 11.2404 16.398 11.8796 15.7389 12.478C14.4373 11.7111 12.8702 11.1268 11.3489 11.6458C8.89535 12.3232 7.40945 15.1324 8.31743 17.46C9.06937 19.8909 12.1185 21.225 14.5082 20.2038C15.7456 19.7742 16.5615 18.667 16.9194 17.4774C15.5013 17.45 14.0828 17.4672 12.6647 17.4292C12.6611 16.611 12.6576 15.7959 12.6611 14.9777C15.0261 14.9743 17.3946 14.9674 19.7631 14.988C19.9086 16.9927 19.6036 19.1381 18.2596 20.7471C16.4192 23.0438 13.0191 23.7179 10.2531 22.8169C7.31763 21.8819 5.18286 19.0142 5.24675 16.0092Z" fill="white"/>
</g>
</g>
</g>
</svg>
