<svg width="33" height="32" viewBox="0 0 33 32" fill="none" xmlns="http://www.w3.org/2000/svg">
<rect width="33" height="32" rx="16" fill="#CC841F"/>
<path d="M24.5867 12.5416C24.5867 12.7166 24.5867 12.8916 24.5867 13.0416C24.5867 18.2166 20.5133 24.1916 13.0883 24.1916C10.7938 24.1916 8.67969 23.5416 6.875 22.4416C7.18437 22.4666 7.51953 22.4916 7.82891 22.4916C9.71094 22.4916 11.4641 21.8666 12.8562 20.8166C11.0773 20.7916 9.58203 19.6416 9.09219 18.0916C9.35 18.1416 9.58203 18.1666 9.86562 18.1666C10.2266 18.1666 10.5875 18.1166 10.9227 18.0166C9.06641 17.6666 7.67422 16.0916 7.67422 14.1916C7.67422 14.1666 7.67422 14.1666 7.67422 14.1416C8.21562 14.4416 8.83437 14.6166 9.50469 14.6416C8.42188 13.9416 7.7 12.7416 7.7 11.3666C7.7 10.6416 7.90625 9.96663 8.24141 9.39163C10.2266 11.7666 13.2172 13.3166 16.5687 13.4916C16.4914 13.2166 16.4656 12.8916 16.4656 12.5916C16.4656 10.4166 18.2703 8.66663 20.5133 8.66663C21.6734 8.66663 22.7305 9.14163 23.4523 9.89163C24.3805 9.71663 25.2312 9.39163 26.0305 8.94163C25.7211 9.86663 25.0766 10.6166 24.2516 11.1166C25.0766 11.0166 25.85 10.8166 26.5719 10.4916C26.0562 11.2916 25.3859 11.9916 24.5867 12.5416Z" fill="white"/>
</svg>
